HIERARCHY
ROOT reference
{
	OFFSET 0.000000 0.000000 0.000000
	CHANNELS 6 Xposition Yposition Zposition Xrotation Yrotation Zrotation
	JOINT root
	{
		OFFSET 0.000000 88.199997 0.000000
		CHANNELS 3 Xrotation Yrotation Zrotation
		JOINT Hips
		{
			OFFSET 0.000000 0.000000 0.000000
			CHANNELS 3 Xrotation Yrotation Zrotation
			JOINT Spine
			{
				OFFSET 0.013598 -0.105484 -0.026471
				CHANNELS 3 Xrotation Yrotation Zrotation
				JOINT Spine1
				{
					OFFSET -5.027500 17.193298 4.853540
					CHANNELS 3 Xrotation Yrotation Zrotation
					JOINT Spine2
					{
						OFFSET -6.489570 17.043396 3.457121
						CHANNELS 3 Xrotation Yrotation Zrotation
						JOINT Neck
						{
							OFFSET -8.669390 15.586197 5.140721
							CHANNELS 3 Xrotation Yrotation Zrotation
							JOINT Head
							{
								OFFSET -6.523951 8.554840 4.152540
								CHANNELS 3 Xrotation Yrotation Zrotation
								End Site
								{
									OFFSET 0.000000 0.100006 0.000000
								}
							}
						}
						JOINT RightShoulder
						{
							OFFSET -11.633801 14.542206 3.299621
							CHANNELS 3 Xrotation Yrotation Zrotation
							JOINT RightArm
							{
								OFFSET -12.870399 -8.032135 -5.333399
								CHANNELS 3 Xrotation Yrotation Zrotation
								JOINT RightForearm
								{
									OFFSET -25.966297 -13.786201 -0.595390
									CHANNELS 3 Xrotation Yrotation Zrotation
									JOINT RightHand
									{
										OFFSET -20.889801 -1.520020 13.516901
										CHANNELS 3 Xrotation Yrotation Zrotation
										End Site
										{
											OFFSET 0.000000 0.099998 0.000000
										}
									}
								}
							}
						}
						JOINT LeftShoulder
						{
							OFFSET -5.713749 16.618195 6.992720
							CHANNELS 3 Xrotation Yrotation Zrotation
							JOINT LeftArm
							{
								OFFSET 14.245000 3.247314 6.718699
								CHANNELS 3 Xrotation Yrotation Zrotation
								JOINT LeftForearm
								{
									OFFSET 23.957701 -14.592697 -8.817431
									CHANNELS 3 Xrotation Yrotation Zrotation
									JOINT LeftHand
									{
										OFFSET 7.512081 -21.311096 10.526399
										CHANNELS 3 Xrotation Yrotation Zrotation
										End Site
										{
											OFFSET 0.000000 0.099998 0.000000
										}
									}
								}
							}
						}
					}
				}
			}
			JOINT RightUpLeg
			{
				OFFSET -8.373450 -0.383102 -4.593220
				CHANNELS 3 Xrotation Yrotation Zrotation
				JOINT RightLeg
				{
					OFFSET -19.962498 -39.044701 10.208101
					CHANNELS 3 Xrotation Yrotation Zrotation
					JOINT RightFoot
					{
						OFFSET -1.150379 -40.875301 -4.843560
						CHANNELS 3 Xrotation Yrotation Zrotation
						JOINT RightToe
						{
							OFFSET -13.504299 -6.853480 9.736690
							CHANNELS 3 Xrotation Yrotation Zrotation
							End Site
							{
								OFFSET 0.000000 0.100000 0.000000
							}
						}
					}
				}
			}
			JOINT LeftUpLeg
			{
				OFFSET 8.373440 0.383102 4.593220
				CHANNELS 3 Xrotation Yrotation Zrotation
				JOINT LeftLeg
				{
					OFFSET 13.247299 -42.688099 5.425308
					CHANNELS 3 Xrotation Yrotation Zrotation
					JOINT LeftFoot
					{
						OFFSET 12.334202 -37.687599 -11.094401
						CHANNELS 3 Xrotation Yrotation Zrotation
						JOINT LeftToe
						{
							OFFSET -0.239304 -7.519040 16.356800
							CHANNELS 3 Xrotation Yrotation Zrotation
							End Site
							{
								OFFSET 0.000000 0.100000 0.000000
							}
						}
					}
				}
			}
		}
	}
}
MOTION
Frames: 13
Frame Time: 0.041667
0.000000 0.000000 0.000000 -0.000000 0.000000 -0.000000 -17.450307 -44.277613 -20.981962 2.713711 1.708172 -5.001657 -1.338269 9.166835 -4.492021 -3.320770 14.210781 -5.227510 -3.359268 9.356587 -3.497740 2.614611 13.708305 9.869461 0.529623 14.175891 24.317693 8.243649 -6.898467 -13.761384 -93.543115 57.215153 126.213959 -2.197267 4.550201 -2.986034 116.278670 -11.131837 -67.842821 7.057507 -15.850494 -2.350696 16.514168 -16.580187 3.531465 -10.642714 -7.996337 -12.223440 9.124710 -22.420171 18.710426 18.447330 4.839444 38.368608 -8.034153 2.199713 -10.302756 -4.644165 1.217549 -11.306991 3.306174 -0.199562 -2.979099 -7.547539 17.928702 -2.993937 3.730342 1.181067 0.111640 8.824231 5.183172 20.598747 -0.159168 0.007042 -1.326041 
0.000000 0.000000 0.000000 -0.000000 0.000000 -0.000000 -17.782102 -45.225828 -21.402347 2.853230 1.787278 -5.253863 -1.744193 8.505066 -4.417073 -3.812789 13.262545 -5.146467 -3.607053 8.676945 -3.472332 2.684875 13.197157 9.575830 0.946645 13.190874 23.569859 8.223870 -6.968592 -13.642226 -92.130311 58.227062 125.488470 -3.081544 6.560190 -4.234411 113.071186 -9.893160 -70.177776 7.190518 -15.673225 -2.658053 17.759882 -16.027882 3.609117 -9.822466 -7.503408 -11.296569 8.133434 -21.501396 18.219434 18.031066 5.881166 39.062098 -8.732747 2.466180 -11.209596 -4.633779 1.191876 -11.288579 3.950428 -0.266336 -2.393088 -8.893855 17.107010 -2.285549 5.137526 1.628151 0.133759 9.524718 6.135794 19.318234 -1.782692 -0.025364 -0.258311 
0.000000 0.000000 0.000000 -0.000000 0.000000 -0.000000 -18.173165 -46.181788 -21.887007 3.079009 1.913541 -5.661042 -2.075494 7.592559 -4.343147 -4.171599 11.988613 -5.084548 -3.740105 7.788286 -3.455352 2.482475 13.061250 9.393730 0.881744 12.929407 22.966921 7.819310 -6.908996 -12.745722 -88.323608 60.359106 122.417440 -4.221599 9.328034 -5.894408 109.483459 -9.038606 -72.142623 7.035513 -14.986502 -2.797396 18.598054 -14.950555 2.964656 -8.499539 -6.668638 -9.797355 6.595988 -21.118330 17.498735 17.474192 6.768817 39.796469 -9.304466 2.693695 -11.953382 -4.479869 1.110597 -10.880273 2.626739 -0.166925 -0.995137 -10.406111 15.954468 -1.390192 6.738764 2.137287 0.145547 10.565130 7.209518 17.409298 -3.248693 -0.116296 1.331864 
0.000000 0.000000 0.000000 -0.000000 0.000000 -0.000000 -18.583685 -47.090275 -22.386613 3.249991 2.007767 -5.968669 -2.330487 6.558766 -4.323097 -4.401579 10.548507 -5.112387 -3.775433 6.797579 -3.492747 2.149147 13.216764 9.293955 0.579713 13.217161 22.521289 7.167735 -6.565306 -11.537720 -81.331543 63.417603 116.359690 -5.458330 12.589153 -7.775235 103.601867 -8.317411 -73.348520 6.706337 -13.804856 -2.942555 19.253152 -13.605087 2.303248 -7.220494 -5.813353 -8.342406 4.778804 -20.706794 16.512875 16.995054 7.578668 40.251281 -9.745313 2.875022 -12.528102 -4.440618 1.045559 -10.302338 1.840660 -0.123865 -0.290393 -11.529521 14.341946 -0.720508 8.259189 2.620734 0.143575 11.621251 8.044038 15.346366 -4.329750 -0.227550 2.902085 
0.000000 0.000000 0.000000 -0.000000 0.000000 -0.000000 -19.019538 -47.960311 -22.908951 3.325388 2.048924 -6.104108 -2.495145 5.506777 -4.357948 -4.495561 9.079769 -5.225548 -3.718031 5.798235 -3.581072 1.713005 13.540631 9.248652 0.101122 13.833630 22.160755 6.344657 -5.995961 -10.120078 -69.510166 66.869458 105.639585 -6.617993 15.938376 -9.637657 95.478292 -7.831965 -73.738647 6.263837 -12.329905 -3.078962 19.786728 -12.135754 1.754889 -6.124352 -5.041275 -7.090833 2.864843 -20.109110 15.336739 16.661666 8.346465 40.360175 -10.073293 3.013252 -12.956205 -4.526474 1.001021 -9.622398 1.940128 -0.127626 -0.405407 -12.039462 12.241751 -0.385516 9.515118 3.019746 0.132262 12.493925 8.392772 13.239633 -4.486207 -0.283688 4.361656 
0.000000 0.000000 0.000000 -0.000000 0.000000 -0.000000 -19.556737 -48.843048 -23.544162 3.272397 2.020025 -6.008929 -2.498447 4.694476 -4.410982 -4.388231 7.937248 -5.359966 -3.552252 5.035624 -3.674324 1.163821 13.671979 9.169574 -0.548749 14.153540 21.595841 5.610185 -5.639499 -8.657295 -51.458823 69.432329 88.845701 -7.641220 19.181067 -11.387956 87.586542 -8.625349 -73.941866 5.896940 -11.304539 -3.081251 20.298028 -10.915015 1.255268 -5.283582 -4.423791 -6.127675 1.263520 -19.098414 14.167909 16.523566 9.081191 40.170771 -10.334685 3.125456 -13.297820 -4.535523 0.940788 -8.936496 1.899772 -0.126218 -0.378920 -11.543532 9.286262 -0.507324 10.229354 3.246452 0.121917 12.661367 7.744332 10.930815 -1.559152 -0.009450 6.277224 
0.000000 0.000000 0.000000 -0.000000 0.000000 -0.000000 -20.224808 -49.772927 -24.328615 3.174318 1.966219 -5.832596 -2.453378 4.022137 -4.450218 -4.229670 6.981940 -5.469228 -3.366857 4.403887 -3.747898 0.579274 13.804607 9.110036 -1.268548 14.490359 21.044803 4.984088 -5.415305 -7.292021 -29.620925 69.613145 68.074078 -8.352170 21.629734 -12.682949 80.641325 -9.394086 -73.961694 5.608176 -10.507839 -3.078193 20.680886 -9.712911 0.666065 -4.472038 -3.806352 -5.195228 -0.674731 -17.826912 13.114750 16.513294 9.918509 39.831303 -10.538013 3.214052 -13.563923 -4.582923 0.886110 -8.294406 1.859622 -0.124092 -0.352559 -10.619214 6.400344 -0.578430 10.408907 3.303412 0.118880 12.522249 7.015107 9.111166 0.597129 0.155788 5.033502 
0.000000 0.000000 0.000000 -0.000000 0.000000 -0.000000 -20.993199 -50.758250 -25.228579 3.070359 1.908751 -5.645461 -2.406160 3.458173 -4.466388 -4.083024 6.173784 -5.538443 -3.201158 3.870699 -3.793912 -0.006337 13.980317 9.073537 -2.000266 14.907397 20.551867 4.443799 -5.259437 -6.045322 -9.868747 67.009784 49.266834 -8.747601 23.075292 -13.438949 75.138365 -9.955056 -73.705999 5.394663 -9.875281 -3.102511 20.863441 -8.478170 -0.074424 -3.603550 -3.121667 -4.194140 -2.751161 -16.603801 12.361912 16.566911 10.872150 39.430105 -10.704600 3.287423 -13.782007 -4.630702 0.833812 -7.753435 1.819714 -0.121670 -0.326356 -9.455444 3.812155 -0.449050 10.071919 3.196521 0.124437 12.267087 6.548878 7.928972 1.026842 0.026474 1.377470 
0.000000 0.000000 0.000000 -0.000000 0.000000 -0.000000 -21.695915 -51.817609 -26.056352 3.029847 1.886232 -5.572456 -2.435568 2.953094 -4.458176 -4.057062 5.453802 -5.561163 -3.123679 3.387203 -3.810824 -0.551653 14.224681 9.047965 -2.663686 15.438777 20.129136 3.834650 -4.891308 -4.831764 4.046609 62.305259 36.792573 -8.824677 23.364798 -13.589803 71.395025 -10.358679 -72.931435 5.191362 -9.309399 -3.104840 20.588519 -7.031854 -1.102597 -2.554852 -2.260897 -2.980616 -3.556236 -16.867927 12.451472 16.494642 11.877343 39.146492 -10.900408 3.374680 -14.038622 -4.413291 0.749373 -7.473907 1.780071 -0.119415 -0.300343 -8.419497 1.937345 0.029425 9.336209 2.962933 0.134404 12.049188 6.307421 7.390823 1.034625 0.019884 1.221563 
0.000000 0.000000 0.000000 -0.000000 0.000000 -0.000000 -22.283750 -52.837599 -26.746449 3.035119 1.889159 -5.581976 -2.487976 2.475893 -4.429537 -4.071602 4.781639 -5.547992 -3.077353 2.932626 -3.803759 -1.075223 14.480269 9.017095 -3.282023 15.991317 19.714192 3.444055 -4.708014 -3.977651 12.641158 57.095935 29.764988 -8.633585 22.651738 -13.218012 68.828807 -10.875493 -72.139324 4.939288 -8.693005 -3.057292 20.181355 -5.969131 -2.331259 -1.320006 -1.197925 -1.544512 -4.040496 -16.896114 12.373663 16.364049 12.842350 38.917161 -11.090859 3.460523 -14.288285 -4.182962 0.669422 -7.279086 1.740757 -0.117457 -0.274535 -7.295026 0.140943 0.676220 8.276930 2.626362 0.143478 11.977144 6.156675 7.094150 0.984029 0.021564 1.445682 
0.000000 0.000000 0.000000 -0.000000 0.000000 -0.000000 -22.719781 -53.759179 -27.252933 3.070073 1.908578 -5.644941 -2.546344 2.014325 -4.394854 -4.099897 4.140502 -5.521037 -3.042937 2.497885 -3.787175 -1.579756 14.729578 8.980972 -3.862227 16.533403 19.299461 3.311372 -4.800010 -3.501190 17.824487 52.066068 26.350390 -8.204226 21.104964 -12.407039 67.422109 -11.575973 -71.579467 4.627724 -8.021641 -2.944211 19.768232 -5.398351 -3.736282 0.059308 0.055358 0.069650 -4.447339 -16.322812 11.955800 16.217903 13.720102 38.707963 -11.266132 3.540378 -14.518293 -3.992605 0.601483 -7.130947 1.701794 -0.115557 -0.248947 -5.972950 -1.822433 1.409452 6.895362 2.187089 0.145944 12.065467 6.046276 6.843777 0.962906 0.024642 1.479351 
0.000000 0.000000 0.000000 -0.000000 0.000000 -0.000000 -22.959078 -54.465967 -27.519587 3.080861 1.914568 -5.664374 -2.591633 1.567025 -4.405415 -4.110662 3.523742 -5.555338 -2.998682 2.080985 -3.811517 -2.064684 14.951742 8.969588 -4.432128 17.019614 18.936997 3.262358 -5.111563 -2.992423 21.054878 47.094950 25.358568 -7.576413 18.966491 -11.273519 67.684087 -12.434394 -71.713831 4.263652 -7.403039 -2.710140 19.434832 -5.078971 -5.322079 1.482808 1.425485 1.747930 -4.941620 -15.303447 11.422504 16.173557 14.453215 38.435831 -11.424740 3.613413 -14.726617 -3.799490 0.541076 -7.044726 1.663226 -0.113672 -0.223625 -4.277011 -4.189345 2.089639 5.165718 1.637113 0.134079 12.210805 5.746062 6.302500 0.941996 0.027579 1.512670 
0.000000 0.000000 0.000000 -0.000000 0.000000 -0.000000 -23.043335 -55.007256 -27.599024 3.061496 1.903823 -5.629490 -2.623656 1.124069 -4.451854 -4.101991 2.914377 -5.639358 -2.941672 1.670633 -3.869025 -2.528013 15.190641 8.935984 -4.941253 17.539938 18.552896 3.224061 -5.442003 -2.487617 23.119104 42.361205 26.084875 -6.758658 16.366812 -9.871588 67.651945 -13.402640 -71.537175 3.977296 -6.914977 -2.525718 19.152216 -4.787326 -6.810210 2.779207 2.744580 3.288534 -5.311532 -14.589527 11.025681 16.249244 14.999017 38.065419 -11.549679 3.671410 -14.890840 -3.687950 0.498573 -6.967686 1.625090 -0.111804 -0.198591 -2.230131 -6.837785 2.721944 3.129168 0.990245 0.098844 12.378237 5.450789 5.880036 1.086124 0.028868 1.616451 
